<?xml version="1.0" standalone="no"?>
<!DOCTYPE svg PUBLIC "-//W3C//DTD SVG 20010904//EN"
 "http://www.w3.org/TR/2001/REC-SVG-20010904/DTD/svg10.dtd">
<svg version="1.0" xmlns="http://www.w3.org/2000/svg"
 width="94.000000pt" height="94.000000pt" viewBox="0 0 94.000000 94.000000"
 preserveAspectRatio="xMidYMid meet">

<g transform="translate(0.000000,94.000000) scale(0.100000,-0.100000)"
fill="#000000" stroke="none">
<path d="M369 793 c-52 -47 -137 -126 -190 -174 l-97 -87 27 -26 c15 -14 31
-26 35 -26 4 0 52 40 106 89 190 173 238 173 428 -2 110 -102 126 -108 158
-59 17 25 17 25 -48 86 -80 76 -316 286 -321 286 -3 0 -46 -39 -98 -87z"/>
<path d="M248 280 l-3 -180 113 0 112 0 0 164 c0 90 -3 171 -6 180 -5 13 -24
16 -110 16 l-103 0 -3 -180z"/>
<path d="M568 433 c12 -2 30 -2 40 0 9 3 -1 5 -23 4 -22 0 -30 -2 -17 -4z"/>
<path d="M641 423 c0 -11 3 -13 6 -5 2 6 13 12 24 12 14 0 19 -7 19 -25 0 -14
5 -25 10 -25 6 0 10 14 10 30 0 28 -3 30 -35 30 -27 0 -35 -4 -34 -17z"/>
<path d="M550 320 c0 -28 3 -30 35 -30 19 0 35 5 35 10 0 6 -12 9 -27 8 -23
-3 -28 1 -27 20 0 12 -3 22 -8 22 -4 0 -8 -13 -8 -30z"/>
<path d="M640 320 c0 -28 3 -30 35 -30 28 0 35 4 35 20 0 14 -7 20 -21 20 -11
0 -17 5 -14 10 3 6 -3 10 -14 10 -17 0 -21 -6 -21 -30z"/>
</g>
</svg>
